<?xml version="1.0" encoding="UTF-8" standalone="no"?>
<!-- Created with Inkscape (http://www.inkscape.org/) -->

<svg
   version="1.1"
   id="svg1"
   viewBox="0 0 1534.8645 1532.3638"
   sodipodi:docname="logo_optimized.svg"
   inkscape:version="1.4.3 (0d15f75042, 2025-12-25)"
   xmlns:inkscape="http://www.inkscape.org/namespaces/inkscape"
   xmlns:sodipodi="http://sodipodi.sourceforge.net/DTD/sodipodi-0.dtd"
   xmlns="http://www.w3.org/2000/svg"
   xmlns:svg="http://www.w3.org/2000/svg">
  <sodipodi:namedview
     id="namedview1"
     pagecolor="#ffffff"
     bordercolor="#000000"
     borderopacity="0.25"
     inkscape:showpageshadow="2"
     inkscape:pageopacity="0.0"
     inkscape:pagecheckerboard="0"
     inkscape:deskcolor="#d1d1d1"
     inkscape:zoom="0.86532978"
     inkscape:cx="329.93202"
     inkscape:cy="766.18188"
     inkscape:window-width="3840"
     inkscape:window-height="1528"
     inkscape:window-x="0"
     inkscape:window-y="0"
     inkscape:window-maximized="1"
     inkscape:current-layer="g1" />
  <defs
     id="defs1" />
  <g
     id="g1"
     transform="translate(-1133.4618,-177.67314)">
    <g
       id="g33"
       transform="translate(-66.542002,-39.320265)" />
    <ellipse
       style="fill:#a6a6a6;fill-opacity:1;stroke-width:1.54843"
       id="path3"
       cx="1908.4521"
       cy="951.32129"
       rx="388.19781"
       ry="386.74393" />
    <path
       id="path5"
       style="fill:#ffffff;stroke-width:1.08817"
       d="M 1905.9989 390.62041 A 563.36902 563.36902 0 0 0 1342.6298 953.98955 A 563.36902 563.36902 0 0 0 1905.9989 1517.3587 A 563.36902 563.36902 0 0 0 2469.3681 953.98955 A 563.36902 563.36902 0 0 0 1905.9989 390.62041 z M 1902.7704 410.49345 A 524.0563 537.95476 0 0 1 2426.8231 948.45048 A 524.0563 537.95476 0 0 1 2356.5497 1217.5267 A 524.0563 537.95476 0 0 0 2426.579 948.92314 A 524.0563 537.95476 0 0 0 1902.5243 410.96806 A 524.0563 537.95476 0 0 0 1448.7411 679.85283 A 524.0563 537.95476 0 0 1 1902.7704 410.49345 z M 1899.4813 480.12431 A 113.16454 118.32045 0 0 1 1988.5106 525.40361 A 105.25629 106.18686 0 0 1 2013.0067 593.50126 A 105.25629 106.18686 0 0 1 2012.5458 603.41533 A 113.16454 118.32045 0 0 1 2000.9833 650.74345 A 113.16454 118.32045 0 0 1 1899.7255 716.29228 A 113.16454 118.32045 0 0 1 1786.5614 597.97197 A 113.16454 118.32045 0 0 1 1801.5575 539.15751 A 113.16454 118.32045 0 0 1 1899.4813 480.12431 z M 2211.7489 651.8333 A 113.16454 118.32045 0 0 1 2324.9149 770.15166 A 113.16454 118.32045 0 0 1 2309.9169 828.96611 A 113.16454 118.32045 0 0 1 2211.9931 887.99931 A 113.16454 118.32045 0 0 1 2098.829 769.679 A 113.16454 118.32045 0 0 1 2113.827 710.8665 A 113.16454 118.32045 0 0 1 2211.7489 651.8333 z M 1601.4989 654.0833 A 113.16454 118.32045 0 0 1 1714.6649 772.40361 A 113.16454 118.32045 0 0 1 1699.6649 831.22197 A 113.16454 118.32045 0 0 1 1601.745 890.25126 A 113.16454 118.32045 0 0 1 1488.579 771.929 A 113.16454 118.32045 0 0 1 1503.579 713.11064 A 113.16454 118.32045 0 0 1 1601.4989 654.0833 z M 1600.5712 1001.7845 A 113.16454 118.32045 0 0 1 1713.7372 1120.1048 A 113.16454 118.32045 0 0 1 1698.7391 1178.9192 A 113.16454 118.32045 0 0 1 1600.8153 1237.9524 A 113.16454 118.32045 0 0 1 1487.6513 1119.6321 A 113.16454 118.32045 0 0 1 1502.6473 1060.8177 A 113.16454 118.32045 0 0 1 1600.5712 1001.7845 z M 2221.62 1006.7806 A 113.16454 118.32045 0 0 1 2334.7841 1125.1009 A 113.16454 118.32045 0 0 1 2327.8915 1165.7669 A 471.49655 480.74158 0 0 1 2307.7763 1201.6438 A 113.16454 118.32045 0 0 0 2322.538 1178.6087 A 113.16454 118.32045 0 0 1 2307.3427 1202.345 A 471.49655 480.74158 0 0 0 2307.7763 1201.6438 A 113.16454 118.32045 0 0 1 2221.8641 1242.9485 A 113.16454 118.32045 0 0 1 2108.7001 1124.6282 A 113.16454 118.32045 0 0 1 2123.6962 1065.8138 A 113.16454 118.32045 0 0 1 2221.62 1006.7806 z M 1904.2841 1186.2415 A 113.16454 118.32045 0 0 1 2017.4481 1304.5618 A 113.16454 118.32045 0 0 1 2002.452 1363.3763 A 113.16454 118.32045 0 0 1 1904.5282 1422.4095 A 113.16454 118.32045 0 0 1 1791.3641 1304.0892 A 113.16454 118.32045 0 0 1 1806.3602 1245.2747 A 113.16454 118.32045 0 0 1 1904.2841 1186.2415 z " />
    <path
       id="path30-3-1-68"
       style="fill:#2563eb;fill-opacity:1;stroke-width:1.75565"
       d="M 1908.7886,448.57785 A 149.25662,149.25662 0 0 0 1759.5318,597.8347 149.25662,149.25662 0 0 0 1908.7886,747.09153 149.25662,149.25662 0 0 0 2058.0455,597.8347 149.25662,149.25662 0 0 0 1908.7886,448.57785 Z m -0.7435,42.18237 a 106.33428,106.33428 0 0 1 106.3336,106.3336 106.33428,106.33428 0 0 1 -106.3336,106.33623 106.33428,106.33428 0 0 1 -106.3362,-106.33623 106.33428,106.33428 0 0 1 106.3362,-106.3336 z" />
    <path
       id="path30-3-1-5-4"
       style="fill:#2563eb;fill-opacity:1;stroke-width:1.75565"
       d="m 1599.9026,980.54058 a 149.25662,149.25662 0 0 0 -149.2568,149.25422 149.25662,149.25662 0 0 0 149.2568,149.2569 149.25662,149.25662 0 0 0 149.2569,-149.2569 149.25662,149.25662 0 0 0 -149.2569,-149.25422 z m -0.7435,42.17982 a 106.33428,106.33428 0 0 1 106.3336,106.3335 106.33428,106.33428 0 0 1 -106.3336,106.3362 106.33428,106.33428 0 0 1 -106.3335,-106.3362 106.33428,106.33428 0 0 1 106.3335,-106.3335 z" />
    <path
       id="path30-3-1-5-6-0"
       style="fill:#2563eb;fill-opacity:1;stroke-width:1.75565"
       d="m 1909.2453,1155.3963 a 149.25662,149.25662 0 0 0 -149.2567,149.2568 149.25662,149.25662 0 0 0 149.2567,149.2568 149.25662,149.25662 0 0 0 149.2569,-149.2568 149.25662,149.25662 0 0 0 -149.2569,-149.2568 z m -0.7434,42.1823 a 106.33428,106.33428 0 0 1 106.3336,106.3336 106.33428,106.33428 0 0 1 -106.3336,106.3336 106.33428,106.33428 0 0 1 -106.3336,-106.3336 106.33428,106.33428 0 0 1 106.3336,-106.3336 z" />
    <path
       id="path30-3-1-5-6-4-7"
       style="fill:#2563eb;fill-opacity:1;stroke-width:1.75565"
       d="m 2218.9387,980.22189 a 149.25662,149.25662 0 0 0 -149.2569,149.25431 149.25662,149.25662 0 0 0 149.2569,149.2568 149.25662,149.25662 0 0 0 149.2541,-149.2568 149.25662,149.25662 0 0 0 -149.2541,-149.25431 z m -0.7462,42.17981 a 106.33428,106.33428 0 0 1 106.3336,106.3336 106.33428,106.33428 0 0 1 -106.3336,106.3361 106.33428,106.33428 0 0 1 -106.3336,-106.3361 106.33428,106.33428 0 0 1 106.3336,-106.3336 z" />
    <path
       id="path30-3-1-7-2"
       style="fill:#2563eb;fill-opacity:1;stroke-width:1.75565"
       d="M 1600.0885,624.44 A 149.25662,149.25662 0 0 0 1450.8316,773.69684 149.25662,149.25662 0 0 0 1600.0885,922.95369 149.25662,149.25662 0 0 0 1749.3453,773.69684 149.25662,149.25662 0 0 0 1600.0885,624.44 Z m -0.7435,42.17972 a 106.33428,106.33428 0 0 1 106.3335,106.33624 106.33428,106.33428 0 0 1 -106.3335,106.3336 106.33428,106.33428 0 0 1 -106.3336,-106.3336 106.33428,106.33428 0 0 1 106.3336,-106.33624 z" />
    <path
       id="path30-3-1-6-2"
       style="fill:#2563eb;fill-opacity:1;stroke-width:1.75565"
       d="M 2216.4532,626.34664 A 149.25662,149.25662 0 0 0 2067.1963,775.60349 149.25662,149.25662 0 0 0 2216.4532,924.86032 149.25662,149.25662 0 0 0 2365.71,775.60349 149.25662,149.25662 0 0 0 2216.4532,626.34664 Z m -0.7436,42.18237 a 106.33428,106.33428 0 0 1 106.3336,106.3336 106.33428,106.33428 0 0 1 -106.3336,106.33358 106.33428,106.33428 0 0 1 -106.3362,-106.33358 106.33428,106.33428 0 0 1 106.3362,-106.3336 z" />
    <path
       id="path1"
       style="fill:#2563eb;fill-opacity:1;stroke:none;stroke-width:1.35961"
       d="m 1935.0639,178.46686 c -21.172,-1.07602 -45.6543,-1.10468 -67.7308,0.20182 -36.7419,2.17442 -49.7853,4.55181 -55.3165,10.08288 -4.2197,4.21975 -8.3996,19.87333 -20.1231,75.37062 -3.4752,16.45128 -6.9577,30.5516 -7.7408,31.33474 -0.7832,0.78313 -17.6717,5.45605 -37.5274,10.3856 -19.8557,4.92954 -43.3684,11.42639 -52.2519,14.43787 -8.8834,3.01148 -16.4983,5.47562 -16.9208,5.47562 -0.4222,0 -3.3513,-2.71912 -6.5085,-6.0439 -13.2884,-13.99337 -53.6639,-57.15569 -60.9036,-65.10718 -11.7018,-12.85245 -17.0507,-12.36647 -51.8405,4.7188 -27.0137,13.26653 -52.2864,27.91982 -87.1052,50.49937 -25.8068,16.73551 -30.3377,23.44583 -26.5946,39.40209 4.1616,17.74083 11.3084,43.83376 17.6749,64.53624 3.6654,11.91895 7.363,23.95691 8.2161,26.75135 1.432,4.69034 0.6172,5.93474 -10.5874,16.19581 -6.6755,6.11344 -23.9081,22.90937 -38.2948,37.3255 l -26.1565,26.21229 -9.1934,-2.32355 c -5.0557,-1.2775 -21.02,-6.16575 -35.4772,-10.86358 -48.2775,-15.68764 -56.3982,-18.15024 -59.8706,-18.15024 -8.982,0 -27.7578,24.02919 -54.3178,69.51528 -20.5927,35.26616 -35.6779,67.7732 -37.3123,80.40809 l -1.2189,9.42962 40.0103,39.86415 40.0127,39.86679 -4.4611,15.96743 c -7.6897,27.52603 -14.9964,57.19342 -17.1227,69.53388 -1.1255,6.53167 -2.6762,12.89631 -3.4467,14.14312 -0.7706,1.24677 -20.4968,7.08905 -43.8368,12.98266 -64.7863,16.35928 -64.6828,16.32628 -66.7988,21.6422 -10.8888,27.35444 -12.0154,131.13726 -1.8349,168.99497 1.6481,6.1289 2.6922,6.9586 13.0862,10.3725 10.3917,3.413 45.622,12.0707 82.5219,20.2825 8.2642,1.8391 15.7151,3.7709 16.557,4.2913 0.842,0.5203 2.1111,5.6041 2.8227,11.299 1.4035,11.2334 15.3013,67.2442 19.8764,80.108 1.5517,4.3627 2.8201,9.1429 2.8201,10.6219 0,1.4789 -16.5973,19.5285 -36.8847,40.1085 -41.7995,42.4022 -43.7018,45.3761 -38.2231,59.7723 7.7313,20.3158 21.3407,46.657 37.153,71.9106 19.0252,30.3851 41.7961,61.542 46.2213,63.2403 6.3869,2.4508 14.3003,0.48 61.0178,-15.2 26.7358,-8.9734 49.7032,-16.3153 51.0383,-16.3153 1.3355,0 9.0475,7.6362 17.1385,16.9686 13.1205,15.1335 35.8517,37.2361 52.4327,50.9827 7.5809,6.2851 7.5248,9.458 -0.6453,36.4465 -12.5667,41.512 -20.5376,70.5744 -20.596,75.1024 -0.1115,8.5915 8.1357,17.0917 31.9721,32.9493 42.2154,28.0851 76.3481,46.2354 106.5433,56.6574 13.7459,4.7445 14.0333,4.7669 19.6081,1.511 3.1119,-1.8174 11.7452,-10.2219 19.1858,-18.6761 27.7914,-31.577 55.0453,-59.7829 57.7649,-59.7829 1.5457,0 8.5216,2.0582 15.5001,4.5755 12.9218,4.6611 52.7241,15.0927 73.6312,19.2973 13.4022,2.6954 12.8899,1.9214 18.4052,27.7923 6.99,32.7893 18.4092,77.8574 20.9969,82.8645 2.9489,5.7056 9.7307,8.0843 29.7122,10.4201 20.4552,2.3912 119.7936,0.8669 134.9677,-2.0713 11.0725,-2.144 13.0114,-3.1377 15.9542,-8.1763 4.1287,-7.0693 9.7362,-28.0335 18.5592,-69.3905 3.7163,-17.4198 7.4366,-33.4629 8.2691,-35.6524 1.1667,-3.0687 3.9264,-4.4483 12.04,-6.0227 19.2667,-3.7387 62.936,-14.9848 75.0997,-19.3399 6.6013,-2.3635 13.638,-4.2966 15.6383,-4.2966 2.2785,0 8.9541,5.9224 17.874,15.8612 21.4068,23.8517 36.5274,39.9886 49.2592,52.5707 9.4271,9.3165 12.5345,11.3309 17.4784,11.3309 8.313,0 45.0426,-15.4453 69.0294,-29.0271 26.3147,-14.8998 70.884,-44.7152 75.3733,-50.4223 7.5042,-9.5401 7.1547,-12.1795 -8.5056,-64.4195 -5.3388,-17.809 -10.7219,-37.2943 -11.9629,-43.303 l -2.2572,-10.9246 8.1205,-6.5113 c 12.7423,-10.2155 44.5008,-41.6006 55.7864,-55.1305 9.4452,-11.3233 10.6854,-12.2042 15.7365,-11.169 3.0155,0.6181 25.0592,7.6254 48.9883,15.5719 45.4431,15.0911 58.7731,18.1124 63.3095,14.3475 3.3321,-2.7654 29.5751,-39.5902 39.0674,-54.8198 19.9831,-32.0616 43.5553,-80.1847 43.5553,-88.9189 0,-8.3593 -3.3799,-12.5219 -42.2195,-52.0131 -18.4302,-18.7393 -34.0442,-35.7609 -34.6993,-37.8247 -0.6564,-2.0682 0.1115,-6.8624 1.7127,-10.6829 4.0938,-9.7642 15.1193,-52.6099 18.8036,-73.0763 2.6829,-14.904 3.6889,-17.4938 7.5416,-19.3877 2.4455,-1.2022 17.8565,-5.2308 34.2451,-8.9544 16.3887,-3.7237 38.8213,-9.2805 49.8514,-12.3479 19.009,-5.2863 20.2147,-5.9071 23.1346,-11.9125 5.1283,-10.5476 7.0176,-27.7876 8.1391,-74.31643 1.5425,-63.99718 -2.9517,-97.67457 -13.5776,-101.73429 -5.5337,-2.11422 -32.3101,-9.2314 -71.0607,-18.88847 -14.4573,-3.60288 -28.2617,-7.50792 -30.6788,-8.67812 -3.8852,-1.88076 -4.9805,-4.96667 -9.4216,-26.6 -2.7634,-13.4601 -7.9161,-34.67177 -11.4505,-47.13485 -3.5345,-12.46308 -6.4287,-24.22891 -6.4423,-26.1459 -0.014,-2.13958 14.6844,-18.092 38.0532,-41.31139 l 38.069,-37.82473 v -9.88903 c 0,-10.53265 -7.8093,-30.27807 -23.8118,-60.20249 -18.4153,-34.4364 -45.1852,-74.82258 -56.1794,-84.75513 -9.6608,-8.72803 -4.0164,-9.722 -77.3038,13.61734 -19.2125,6.11844 -35.6565,10.85759 -36.5422,10.53165 -0.8858,-0.32593 -18.4413,-17.13855 -39.0116,-37.36268 l -37.3999,-36.7705 1.2507,-6.73697 c 0.6885,-3.70497 3.1992,-12.44553 5.5792,-19.42487 6.6247,-19.42683 20.503,-72.55437 20.503,-78.48816 0,-2.90046 -1.8572,-8.04402 -4.1267,-11.43186 -11.6767,-17.43098 -126.6715,-83.20433 -145.47,-83.20433 -7.0332,0 -8.408,0.99555 -25.6334,18.58044 -22.2069,22.67053 -47.5361,49.38349 -53.5001,56.42108 l -4.4161,5.21006 -23.4666,-7.52298 c -12.907,-4.13776 -36.9265,-10.88085 -53.3778,-14.9849 -16.4512,-4.10404 -30.4713,-8.3266 -31.1542,-9.38449 -0.6828,-1.05787 -3.0088,-9.71286 -5.1702,-19.23102 -19.659,-86.57589 -19.9507,-87.47404 -29.3591,-90.53876 -8.8336,-2.87751 -26.6958,-4.99971 -47.8677,-6.07576 z m -99.4559,223.14042 c 19.9179,-3.16182 106.9366,-3.14369 129.6169,0.0265 74.1129,10.35958 143.421,32.9802 197.1432,64.34506 6.2315,3.63819 16.2961,9.46658 22.3645,12.9508 47.0246,26.99941 102.6622,75.15958 138.8021,120.14742 64.4113,80.18019 97.2717,151.70372 116.6476,253.89889 9.4797,49.99924 11.1332,107.85282 4.6232,161.64995 -13.9723,115.4627 -63.3655,219.6727 -145.0904,306.1138 -35.6854,37.7445 -102.0457,86.2534 -152.3798,111.3869 -60.6261,30.2725 -131.9583,50.7574 -199.9765,57.4275 -17.1415,1.681 -71.9699,2.0998 -87.2779,0.6666 -33.0845,-3.0972 -65.5962,-8.9521 -95.1725,-17.1359 -28.2587,-7.8196 -65.3799,-20.419 -79.9912,-27.1497 -6.8534,-3.157 -18.2658,-8.3987 -25.3599,-11.6496 -34.444,-15.784 -90.231,-53.1069 -127.5934,-85.3632 -42.4755,-36.6708 -86.7636,-93.2543 -116.8626,-149.3047 -50.4173,-93.8876 -71.2713,-207.39096 -58.1365,-316.42222 11.7538,-97.56819 47.9862,-187.6532 106.8168,-265.57507 43.1993,-57.21801 101.3288,-108.78379 161.5412,-143.30059 10.9674,-6.28713 21.1637,-12.37261 22.6592,-13.52439 1.4956,-1.15176 7.0028,-3.887 12.2365,-6.07575 5.2337,-2.18874 16.2465,-7.11713 24.473,-10.95387 39.52,-18.43174 89.6222,-32.42852 150.9165,-42.15848 z" />
    <circle
       style="fill:#2563eb;fill-opacity:1;stroke-width:1.55821"
       id="path31-1"
       cx="1908.9188"
       cy="815.08734"
       r="26.216038" />
    <circle
       style="fill:#2563eb;fill-opacity:1;stroke-width:1.55821"
       id="path31-3-0"
       cx="2025.4595"
       cy="882.58038"
       r="26.216038" />
    <circle
       style="fill:#2563eb;fill-opacity:1;stroke-width:1.55821"
       id="path31-3-3-6"
       cx="2025.6167"
       cy="1017.0211"
       r="26.216038" />
    <circle
       style="fill:#2563eb;fill-opacity:1;stroke-width:1.55821"
       id="path31-3-3-5-1"
       cx="1908.8962"
       cy="1085.3112"
       r="26.216038" />
    <circle
       style="fill:#2563eb;fill-opacity:1;stroke-width:1.55821"
       id="path31-3-3-5-5-5"
       cx="1791.4561"
       cy="1017.0377"
       r="26.216038" />
    <circle
       style="fill:#2563eb;fill-opacity:1;stroke-width:1.55821"
       id="path31-3-3-5-5-4-9"
       cx="1791.4329"
       cy="883.19623"
       r="26.216038" />
    <circle
       style="fill:#2563eb;fill-opacity:1;stroke-width:1.38592"
       id="path32-4"
       cx="1908.9188"
       cy="952.33594"
       r="81.218307" />
    <circle
       style="fill:#ffffff;fill-opacity:1;stroke-width:2.38314"
       id="path31-3-3-5-5-4-7-9"
       cx="1908.5186"
       cy="952.28204"
       r="40.095116" />
  </g>
</svg>
